<?xml version="1.0" encoding="UTF-8"?>
<svg id="Layer_1" data-name="Layer 1" xmlns="http://www.w3.org/2000/svg" xmlns:xlink="http://www.w3.org/1999/xlink" viewBox="0 0 1920 1080">
  <defs>
    <style>
      .cls-1 {
        clip-path: url(#clippath);
      }

      .cls-2 {
        fill: none;
      }

      .cls-2, .cls-3, .cls-4, .cls-5, .cls-6, .cls-7 {
        stroke-width: 0px;
      }

      .cls-8 {
        clip-path: url(#clippath-1);
      }

      .cls-9 {
        clip-path: url(#clippath-4);
      }

      .cls-10 {
        clip-path: url(#clippath-3);
      }

      .cls-11 {
        clip-path: url(#clippath-2);
      }

      .cls-12 {
        fill: #fff;
        stroke: #000;
        stroke-miterlimit: 10;
      }

      .cls-3 {
        fill: #231f20;
      }

      .cls-4 {
        fill: #221f20;
      }

      .cls-5 {
        fill: #c02333;
      }

      .cls-6 {
        fill: #c41230;
      }

      .cls-7 {
        fill: #939598;
      }
    </style>
    <clipPath id="clippath">
      <rect class="cls-2" x="214.64" y="41.26" width="1490.62" height="997.16"/>
    </clipPath>
    <clipPath id="clippath-1">
      <rect class="cls-2" x="214.64" y="41.26" width="1490.62" height="997.16"/>
    </clipPath>
    <clipPath id="clippath-2">
      <rect class="cls-2" x="214.64" y="41.26" width="1490.62" height="997.16"/>
    </clipPath>
    <clipPath id="clippath-3">
      <rect class="cls-2" x="214.64" y="41.26" width="1490.62" height="997.16"/>
    </clipPath>
    <clipPath id="clippath-4">
      <rect class="cls-2" x="214.64" y="41.26" width="1490.62" height="997.16"/>
    </clipPath>
  </defs>
  <rect class="cls-12" width="1920" height="1080"/>
  <path class="cls-3" d="M630.17,319.51c75.9-93.92,162.54-153.5,212.77-150.79,10.11.55,18.75,3.61,25.53,9.43l-39.11-33.61-9.72-8.36c-40.43-34.75-147.12,28.55-238.3,141.36-1.99,2.46-23.95,29.69-25.89,32.16l48.83,41.95c1.93-2.46,23.91-29.69,25.89-32.15"/>
  <path class="cls-3" d="M578.35,383.64c-75.9,93.92-117.1,192.53-105.46,242.99,2.34,10.16,6.81,18.38,13.59,24.2l-39.11-33.61-9.72-8.36c-40.44-34.75.69-154.37,91.87-267.19,1.99-2.45,23.93-29.56,25.93-31.97l48.83,41.97c-2,2.41-23.94,29.51-25.93,31.97"/>
  <path class="cls-5" d="M439.69,606.33c-18.05-15.5-18.86-52.09-2.27-100.39,17.25-50.14,50.91-107.65,94.8-161.95,1.68-2.09,17.91-22.13,23.87-29.44l43.44,37.32c-6,7.38-22.18,27.37-23.87,29.47-74.55,92.25-118.16,193.32-106.06,245.78.53,2.28,1.15,4.46,1.88,6.54l-31.78-27.32h-.01Z"/>
  <path class="cls-6" d="M352.77,278.79v70.43h-39.13v-70.43c0-.87-.58-1.81-1.73-2.82s-2.5-1.88-4.03-2.61c-1.54-.72-3.45-1.23-5.75-1.53-2.3-.28-4.61-.44-6.91-.44h-24.16c-4.61,0-8.63.73-12.09,2.18-3.46,1.46-5.19,3.2-5.19,5.22v290.87c0,2.03,1.73,3.77,5.19,5.22,3.46,1.45,7.48,2.18,12.09,2.18h24.16c5.36,0,9.79-.73,13.24-2.18,3.46-1.45,5.19-3.19,5.19-5.22v-70.43h39.13v70.43c0,6.09-5.57,11.38-16.69,15.86-11.14,4.5-24.75,6.75-40.87,6.75h-24.16c-15.36,0-28.6-2.25-39.71-6.75-11.14-4.48-16.7-9.77-16.7-15.86v-290.87c0-6.09,5.56-11.37,16.7-15.87,11.11-4.49,24.35-6.74,39.71-6.74h24.16c16.12,0,29.74,2.25,40.87,6.74,11.11,4.5,16.69,9.78,16.69,15.87"/>
  <rect class="cls-2" x="214.64" y="41.26" width="1490.62" height="997.16"/>
  <polygon class="cls-5" points="1095.24 256.62 1134.37 256.62 1134.37 592.71 1128.62 592.71 1094.09 592.71 1015.82 369.66 1015.82 592.71 976.69 592.71 976.69 256.62 988.19 256.18 1015.82 256.18 1095.24 479.66 1095.24 256.62"/>
  <g class="cls-1">
    <g>
      <path class="cls-5" d="M1320.84,279.22v104.78h-39.13v-104.78c0-2.32-2.13-4.27-6.33-5.87-4.23-1.59-9.41-2.4-15.54-2.4h-10.36c-6.15,0-11.51.88-16.11,2.61-4.61,1.74-6.91,3.63-6.91,5.66v114.35c0,4.63,3.26,8.91,9.78,12.82,6.51,3.92,14.39,7.4,23.6,10.44,9.21,3.05,18.41,6.16,27.62,9.35s17.07,7.4,23.6,12.61c6.51,5.22,9.78,11.02,9.78,17.39v113.05c0,6.38-5.95,11.73-17.84,16.09-11.91,4.35-25.89,6.53-42.01,6.53h-13.82c-16.11,0-30.13-2.18-42.01-6.53-11.9-4.35-17.84-9.7-17.84-16.09v-104.78h39.13v104.78c0,2.03,2.1,3.85,6.34,5.43,4.21,1.6,9.01,2.4,14.38,2.4h13.82c5.36,0,10.16-.73,14.39-2.18,4.2-1.45,6.33-3.33,6.33-5.66v-113.05c0-4.06-2.13-7.75-6.33-11.09-4.23-3.33-8.64-5.87-13.24-7.61-4.61-1.74-11.91-4.2-21.87-7.38-11.51-4.06-20.14-7.24-25.9-9.57-5.75-2.32-11.7-6.01-17.84-11.09-6.15-5.07-9.21-10.5-9.21-16.3v-113.92c0-5.8,5.75-11.02,17.26-15.65s24.93-7.1,40.3-7.4h18.41c10.74.29,20.52,1.53,29.35,3.7,8.81,2.18,15.72,4.93,20.72,8.25,4.97,3.34,7.48,7.03,7.48,11.09"/>
      <path class="cls-5" d="M1472.76,569.66v-290.43c0-1.15-.58-2.18-1.73-3.05s-2.49-1.67-4.02-2.39c-1.55-.73-3.46-1.31-5.76-1.74s-4.6-.66-6.9-.66h-24.18c-4.6,0-8.63.73-12.09,2.18-3.45,1.46-5.17,3.34-5.17,5.66v290.43c0,2.03,1.73,3.85,5.17,5.43,3.46,1.6,7.49,2.39,12.09,2.39h24.18c5.36,0,9.78-.79,13.24-2.39,3.45-1.59,5.17-3.4,5.17-5.43M1454.35,256.62c16.11,0,29.73,2.18,40.86,6.53,11.11,4.34,16.69,9.71,16.69,16.09v290.43c0,6.37-5.57,11.73-16.69,16.09-11.14,4.35-24.75,6.53-40.86,6.53h-24.18c-15.36,0-28.6-2.18-39.71-6.53-11.14-4.35-16.69-9.71-16.69-16.09v-290.43c0-6.37,5.55-11.75,16.69-16.09,11.11-4.35,24.35-6.53,39.71-6.53h24.18Z"/>
    </g>
  </g>
  <polygon class="cls-5" points="1568.3 256.18 1568.3 591.83 1705.28 591.83 1705.28 577.05 1607.43 577.05 1607.43 256.18 1568.3 256.18"/>
  <g class="cls-8">
    <g>
      <path class="cls-4" d="M310.43,699.19v61.2h-27.84v-61.2c0-1.35-1.52-2.49-4.5-3.43-3.01-.92-6.7-1.39-11.06-1.39h-7.37c-4.37,0-8.18.51-11.46,1.52-3.28,1.02-4.92,2.13-4.92,3.3v66.8c0,2.7,2.32,5.2,6.96,7.49,4.63,2.28,10.24,4.32,16.79,6.09,6.55,1.78,13.1,3.6,19.66,5.47,6.55,1.86,12.15,4.32,16.79,7.36,4.63,3.05,6.96,6.43,6.96,10.16v66.04c0,3.73-4.23,6.86-12.7,9.4-8.47,2.54-18.43,3.81-29.89,3.81h-9.83c-11.46,0-21.44-1.27-29.9-3.81-8.47-2.54-12.69-5.67-12.69-9.4v-61.21h27.84v61.21c0,1.18,1.51,2.25,4.5,3.17,3,.93,6.41,1.39,10.24,1.39h9.83c3.81,0,7.23-.41,10.24-1.27,2.99-.83,4.5-1.94,4.5-3.29v-66.04c0-2.36-1.52-4.53-4.5-6.48-3.01-1.94-6.15-3.42-9.42-4.44-3.28-1.01-8.48-2.45-15.57-4.32-8.2-2.36-14.33-4.23-18.43-5.59-4.1-1.35-8.34-3.52-12.7-6.48-4.37-2.96-6.55-6.14-6.55-9.52v-66.54c0-3.39,4.09-6.43,12.29-9.14,8.18-2.72,17.73-4.15,28.67-4.33h13.1c7.64.18,14.6.89,20.88,2.16s11.19,2.88,14.75,4.82c3.55,1.95,5.33,4.1,5.33,6.48"/>
      <path class="cls-4" d="M467.69,868.84v-169.65c0-.67-.41-1.27-1.23-1.78s-1.78-.98-2.87-1.4c-1.09-.41-2.46-.76-4.09-1.01-1.63-.26-3.28-.39-4.92-.39h-17.2c-3.27,0-6.14.42-8.6,1.27-2.46.86-3.69,1.95-3.69,3.3v169.65c0,1.2,1.23,2.25,3.69,3.17,2.46.94,5.33,1.4,8.6,1.4h17.2c3.81,0,6.96-.46,9.42-1.4,2.46-.93,3.69-1.98,3.69-3.17M454.58,685.98c11.46,0,21.15,1.27,29.08,3.81,7.9,2.54,11.88,5.68,11.88,9.4v169.65c0,3.73-3.97,6.87-11.88,9.41-7.93,2.54-17.61,3.81-29.08,3.81h-17.2c-10.92,0-20.34-1.27-28.26-3.81-7.93-2.54-11.88-5.68-11.88-9.41v-169.65c0-3.72,3.95-6.86,11.88-9.4,7.91-2.54,17.33-3.81,28.26-3.81h17.2Z"/>
    </g>
  </g>
  <polygon class="cls-4" points="612.66 873.16 682.28 873.16 682.28 881.79 584.82 881.79 584.82 685.73 612.66 685.73 612.66 873.16"/>
  <g class="cls-11">
    <path class="cls-4" d="M819.89,685.98h27.84v182.61c0,3.55-3.96,6.64-11.88,9.27-7.93,2.63-17.6,3.94-29.08,3.94h-17.19c-10.94,0-20.35-1.31-28.27-3.94-7.91-2.62-11.88-5.71-11.88-9.27v-182.61h27.86v182.61c0,.85.54,1.61,1.63,2.28,1.08.68,2.59,1.23,4.5,1.66,1.9.42,3.95.63,6.15.63h17.19c3.82,0,6.97-.47,9.42-1.4,2.46-.93,3.69-1.99,3.69-3.17v-182.61h.02Z"/>
  </g>
  <polygon class="cls-4" points="928 685.73 1024.65 685.73 1024.65 694.36 991.07 694.36 991.07 882.05 962.4 882.05 962.4 694.36 928 694.36 928 685.73"/>
  <rect class="cls-4" x="1105.74" y="685.99" width="27.84" height="196.32"/>
  <g class="cls-10">
    <path class="cls-4" d="M1293.3,868.84v-169.65c0-.67-.41-1.27-1.23-1.78-.81-.51-1.78-.98-2.87-1.4-1.09-.41-2.46-.76-4.09-1.01-1.63-.26-3.28-.39-4.92-.39h-17.2c-3.27,0-6.14.42-8.6,1.27-2.46.86-3.69,1.95-3.69,3.3v169.65c0,1.2,1.23,2.25,3.69,3.17,2.46.94,5.33,1.4,8.6,1.4h17.2c3.82,0,6.96-.46,9.42-1.4,2.46-.93,3.69-1.98,3.69-3.17M1280.19,685.98c11.46,0,21.15,1.27,29.08,3.81,7.91,2.54,11.88,5.68,11.88,9.4v169.65c0,3.73-3.96,6.87-11.88,9.41-7.93,2.54-17.61,3.81-29.08,3.81h-17.2c-10.92,0-20.34-1.27-28.26-3.81-7.91-2.54-11.88-5.68-11.88-9.41v-169.65c0-3.72,3.96-6.86,11.88-9.4,7.91-2.54,17.33-3.81,28.26-3.81h17.2Z"/>
  </g>
  <polygon class="cls-4" points="1494.79 685.98 1522.64 685.98 1522.64 882.3 1518.54 882.3 1493.97 882.3 1438.28 752.02 1438.28 882.3 1410.42 882.3 1410.42 685.98 1418.62 685.72 1438.28 685.72 1494.79 816.26 1494.79 685.98"/>
  <g class="cls-9">
    <g>
      <path class="cls-4" d="M1704.47,699.19v61.2h-27.84v-61.2c0-1.35-1.52-2.49-4.5-3.43-3.01-.92-6.7-1.39-11.06-1.39h-7.37c-4.37,0-8.18.51-11.46,1.52-3.27,1.02-4.92,2.13-4.92,3.3v66.8c0,2.7,2.32,5.2,6.96,7.49,4.63,2.28,10.24,4.32,16.79,6.09,6.56,1.78,13.11,3.6,19.66,5.47,6.55,1.86,12.15,4.32,16.79,7.36,4.63,3.05,6.96,6.43,6.96,10.16v66.04c0,3.73-4.23,6.86-12.7,9.4-8.47,2.54-18.43,3.81-29.89,3.81h-9.83c-11.46,0-21.44-1.27-29.9-3.81-8.47-2.54-12.69-5.67-12.69-9.4v-61.21h27.84v61.21c0,1.18,1.51,2.25,4.5,3.17,3,.93,6.42,1.39,10.24,1.39h9.83c3.81,0,7.23-.41,10.24-1.27,2.99-.83,4.5-1.94,4.5-3.29v-66.04c0-2.36-1.52-4.53-4.5-6.48-3.01-1.94-6.15-3.42-9.42-4.44-3.28-1.01-8.48-2.45-15.57-4.32-8.18-2.36-14.33-4.23-18.43-5.59-4.1-1.35-8.34-3.52-12.7-6.48-4.37-2.96-6.55-6.14-6.55-9.52v-66.54c0-3.39,4.09-6.43,12.29-9.14,8.18-2.72,17.73-4.15,28.67-4.33h13.1c7.64.18,14.6.89,20.88,2.16,6.28,1.27,11.19,2.88,14.75,4.82,3.55,1.95,5.33,4.1,5.33,6.48"/>
      <path class="cls-7" d="M657.98,118.14c0,11.06-.19,21.67.08,32.28.14,5.76,4.9,9.97,10.41,10.03,5.27.05,10.35-3.89,10.54-9.29.36-10.92.11-21.86.11-33.02h-21.14ZM671.78,41.26c5.76,3.14,7.75,7.91,7.56,14.47-.38,13.43-.11,26.88-.11,40.9,3.75,0,7.07-.12,10.38.02,6.43.27,10.77,4.34,10.83,10.74.16,14.9.49,29.82-.13,44.69-.51,11.84-6.82,20.72-17.4,26.16-2.74,1.4-3.88,2.83-3.76,5.94.26,6.38.26,12.78,0,19.15-.12,2.96.99,4.35,3.53,5.63,78.98,40.07,157.9,80.23,236.89,120.29,2.09,1.06,4.76,1.65,7.08,1.46,6.57-.55,11.35,1.8,14.47,7.56v6.38c-3.21,2.97-6.43,5.95-10.39,9.61v208.36c4.28,4.06,7.34,6.95,10.39,9.85v13.84h-68.13c-1.92-1.76-4.3-3.23-5.66-5.36-4.52-7.08.73-15.72,9.64-15.87,10.47-.19,20.92-.05,31.79-.05v-212.92h-347.76c-10.24,0-15.06-3.53-14.93-10.9.14-7.09,4.86-10.39,14.87-10.39h312.11c.06-.35.13-.71.2-1.06-5.44-2.8-10.88-5.6-16.32-8.37-60.79-30.91-121.61-61.79-182.34-92.81-4.15-2.13-7.34-2.39-11.69-.16-65.28,33.42-130.68,66.61-196.05,99.86-1.2.61-2.35,1.29-3.89,2.14.94.62,1.49,1.02,2.07,1.36,5.34,3.22,7.34,7.33,5.96,12.28-1.4,5.07-5.23,7.95-11.12,8.02-8.7.11-17.39.04-26.08.04h-5.5v212.91h346.58c1.6,0,3.19-.04,4.79.01,5.86.18,10.11,3.13,11.14,8.03,1.09,5.28-.75,9.4-5.51,12.1-.6.34-1.15.76-1.73,1.15h-387.5v-13.84c3.21-2.97,6.42-5.94,10.39-9.62v-208.37c-4.28-4.03-7.34-6.94-10.39-9.83v-6.38c2.99-5.57,7.54-7.84,13.93-7.61,3.16.12,6.68-.86,9.54-2.3,78.05-39.57,156.02-79.29,234.08-118.83,3.36-1.71,4.82-3.57,4.4-7.27-.28-2.46-.27-4.99-.02-7.44.86-8.7.06-15.57-9.35-20.65-8.57-4.64-11.88-14.24-11.95-24.22-.11-13.48-.06-26.96-.02-40.44.02-9.07,3.88-12.84,13.02-12.9,2.48-.01,4.96,0,8.27,0v-6.83c0-11.35.29-22.72-.12-34.05-.22-6.56,1.79-11.35,7.57-14.47h6.38-.01Z"/>
      <path class="cls-7" d="M825.08,586.32c-4.17-2.87-7.85-6.07-7.2-11.83.55-4.84,4.6-8.82,9.38-9.37,4.64-.54,9.16,2.16,10.98,6.57,1.88,4.57.41,9.59-3.74,12.63-.98.72-2.02,1.34-3.05,2h-6.38.01Z"/>
      <path class="cls-7" d="M543.82,457.96v-69.63c0-1.76-.06-3.55.12-5.3.52-5.29,4.54-9.2,9.71-9.56,4.94-.35,9.47,2.72,10.77,7.65.58,2.19.66,4.55.66,6.83.04,47.13.04,94.26.02,141.38,0,1.76.04,3.57-.28,5.29-1.03,5.73-5.87,9.51-11.31,9.04-5.39-.46-9.28-4.53-9.61-10.23-.18-3.19-.08-6.37-.08-9.57v-65.91"/>
      <path class="cls-7" d="M498.13,458.26c0-24.45.02-48.9-.01-73.35-.01-4.93,1.92-8.57,6.5-10.58,4.19-1.83,8.45-1.28,11.15,2.16,2.01,2.56,3.41,6.3,3.49,9.55.36,14.52.15,29.06.15,43.59,0,33.14.01,66.26,0,99.39,0,1.78.08,3.57-.19,5.3-.89,5.73-5.64,9.65-11.1,9.36-5.56-.32-9.81-4.54-9.91-10.48-.19-10.28-.08-20.55-.08-30.83-.01-14.71,0-29.41,0-44.12"/>
      <path class="cls-7" d="M589.5,458.29c0-23.25,0-46.48.01-69.73,0-1.95-.06-3.92.16-5.84.6-5.07,4.49-8.81,9.47-9.25,5.1-.46,9.85,2.83,11.05,8,.52,2.21.58,4.56.58,6.86.02,46.83.02,93.68.01,140.53,0,9.64-3.67,14.77-10.59,14.86-7.02.08-10.69-4.9-10.69-14.62v-70.8"/>
      <path class="cls-7" d="M747.67,459.03c0,23.25,0,46.48-.01,69.73,0,1.95.05,3.92-.2,5.84-.65,5.04-4.62,8.71-9.62,9.08-4.9.35-9.54-2.79-10.78-7.67-.56-2.2-.65-4.56-.65-6.86-.04-47.01-.04-94.03-.02-141.05,0-1.41-.06-2.85.08-4.26.63-6.22,5.01-10.45,10.7-10.42,5.95.04,10.39,4.46,10.43,11.08.11,24.85.05,49.68.05,74.53h.02Z"/>
      <path class="cls-7" d="M793.34,458.63c0,24.27-.04,48.55.02,72.82.02,5.28-1.62,9.37-6.78,11.46-5.54,2.25-11.88-.59-13.68-6.38-.72-2.3-.82-4.88-.82-7.33-.05-47.14-.04-94.27-.02-141.4,0-1.76-.05-3.56.26-5.29,1.01-5.71,5.86-9.51,11.32-9.05,5.39.46,9.41,4.5,9.59,10.22.22,7.09.11,14.18.11,21.26.01,17.9,0,35.79,0,53.69"/>
      <path class="cls-7" d="M452.42,458.03c0-24.09.05-48.2-.04-72.29-.02-5.07,1.54-9.05,6.28-11.3,6.36-3,13.65.99,14.85,8.14.29,1.73.19,3.53.19,5.3.01,47.13.01,94.26,0,141.4,0,.88.02,1.78,0,2.66-.22,7.1-4.73,11.93-10.96,11.77-6.08-.16-10.29-4.83-10.3-11.78-.06-24.63-.02-49.26-.02-73.89"/>
      <path class="cls-7" d="M702.03,458.67c0,23.42.01,46.83-.01,70.26,0,2.13,0,4.29-.36,6.36-.88,4.92-5.24,8.41-10.21,8.42-4.75.01-9.07-3.19-10.12-7.85-.51-2.22-.56-4.57-.56-6.87-.02-47.02-.02-94.04-.02-141.05,0-.72-.01-1.42.01-2.13.24-7.7,4.49-12.52,10.91-12.37,6.29.14,10.3,4.74,10.34,12.31.09,19.34.04,38.69.04,58.03v14.9h-.02Z"/>
      <path class="cls-7" d="M839.03,459.08c0,24.09-.04,48.2.04,72.29.02,4.82-1.32,8.75-5.75,11.1-5.68,3.03-12.66.34-14.7-5.87-.74-2.29-.83-4.87-.83-7.31-.05-47.14-.04-94.27-.04-141.41,0-1.23-.06-2.48.04-3.72.47-6.38,5.06-10.86,10.92-10.72,5.96.14,10.27,4.61,10.29,11.22.08,24.81.04,49.61.04,74.42"/>
      <path class="cls-7" d="M884.74,458.52c0,24.27-.04,48.55.04,72.82.01,4.83-1.36,8.75-5.76,11.11-6.38,3.43-14.11-.49-15.37-7.84-.29-1.73-.19-3.53-.19-5.3-.01-47.13-.01-94.27-.01-141.4,0-.89-.01-1.78.01-2.66.2-7.13,4.64-11.95,10.9-11.81,6.13.13,10.34,4.74,10.36,11.71.06,24.46.02,48.9.02,73.36"/>
      <path class="cls-7" d="M635.14,458.04c-.01-23.6-.05-47.2.05-70.79.01-2.78.31-5.77,1.42-8.24,1.85-4.07,5.59-5.93,10.04-5.48,4.66.46,7.97,3.02,9.15,7.64.56,2.2.6,4.57.6,6.87.04,47.01.02,94.03.02,141.04,0,1.07.02,2.13-.04,3.2-.42,6.96-4.72,11.5-10.78,11.42-6.1-.07-10.38-4.6-10.42-11.68-.11-24.66-.04-49.33-.05-73.98"/>
      <path class="cls-7" d="M519.35,341.5c-.04,5.81-5.15,10.75-10.96,10.57-5.74-.16-10.23-4.87-10.22-10.65.02-6,4.89-10.74,10.83-10.56,5.66.18,10.38,5.04,10.35,10.64"/>
      <path class="cls-3" d="M769.77,368.52l-16.38-14.59-8.21,55.84-8.2,55.84,52.63-16.26,52.64-16.27-24.3-21.65c68.49-99.02,95.64-194.5,60.25-224.93l-9.72-8.35c-6.78-5.82-15.43-8.88-25.54-9.43,9.87,42.74-18.21,120.05-73.17,199.8"/>
      <path class="cls-3" d="M650.28,516.38l-16.87-13.99,51.78-18.38,51.8-18.39-6.03,56.32-6.02,56.32-25.03-20.75c-82.1,87.32-168.29,132.09-203.69,101.66l-9.72-8.35c-6.77-5.82-11.25-14.04-13.59-24.2,42.54,2.3,111.24-40.12,177.39-110.25"/>
      <path class="cls-5" d="M699.38,552.86l-2.03,2.18c-15.19,16.14-30.76,31.09-46.3,44.42-66.66,57.22-126.64,79.68-152.79,57.19l-9.74-8.36c-5.13-4.41-8.9-10.5-11.28-18.16,33.08-.36,79.96-24.62,129.61-67.25,15.43-13.24,30.88-28.06,45.95-44.02l2.43-2.59-15.11-12.53,92.87-32.98-10.82,101.01-22.8-18.91h0Z"/>
    </g>
  </g>
  <g>
    <path class="cls-3" d="M236.03,965.34h10.45l20.05,69.21h-8.74l-5.61-19.93h-22.51l-5.23,19.93h-8.74l20.33-69.21h0ZM241.16,970.88h-.19l-9.41,36.82h18.81l-9.22-36.82h.01Z"/>
    <path class="cls-3" d="M294.47,1034.55v-69.21h33.44v6.92h-25.55v22.7h23.75v6.92h-23.75v32.66h-7.89Z"/>
    <path class="cls-3" d="M343.78,1034.55h-7.89v-69.21h18.34c14.92,0,24.42,3.78,23.94,19.75-.28,8.12-5.41,13.93-13.68,15.04v.18c9.22.83,11.5,3.69,12.64,12.92.28,5.17.76,10.24,1.52,15.41.28,1.29.86,4.34,2.76,4.34v1.57h-9.22c-1.71-4.43-2.47-13.01-2.47-17.62,0-6.92-2.85-12.83-12.16-12.83h-13.78v30.45h0ZM343.78,997.18h12.44c3.7-.09,13.96-.65,13.78-12.74-.19-11.9-9.79-12.18-15.11-12.18h-11.11v24.91h0Z"/>
    <path class="cls-3" d="M390.91,1034.55v-69.21h35.63v6.92h-27.74v22.88h26.03v6.92h-26.03v25.56h27.93v6.92h-35.82Z"/>
    <path class="cls-3" d="M438.8,1034.55v-69.21h7.89v69.21h-7.89Z"/>
    <path class="cls-3" d="M504.55,1035.11h-6.08v-10.8h-.19c-2.09,7.84-8.46,11.9-16.34,11.9-21.19,0-22.8-20.48-22.8-36.72s2.95-35.53,23.56-35.53c13.59,0,21.38,8.58,21.19,21.5h-7.98c-.1-8.49-3.8-14.4-12.82-14.58-15.58-.28-15.77,17.07-15.77,28.88,0,10.52-.57,28.88,13.49,29.53,14.63.64,15.96-12.37,15.86-23.35h-15.86v-6.92h23.75v36.08h-.01Z"/>
    <path class="cls-3" d="M517.67,1034.55v-69.21h7.88v28.88h27.27v-28.88h7.88v69.21h-7.88v-33.4h-27.27v33.4h-7.88Z"/>
    <path class="cls-3" d="M567.74,965.34h44.75v6.92h-18.43v62.29h-7.88v-62.29h-18.43v-6.92h-.01Z"/>
    <path class="cls-3" d="M671.78,983.52c.57-7.2-3.42-12.64-11.3-12.64-11.5,0-12.73,7.01-12.73,12.37,0,4.8,2.18,7.75,6.74,9.41,3.8,1.39,7.51,2.77,11.31,4.15,13.49,4.89,15.96,9.5,15.96,18.64,0,13.1-8.46,20.76-22.14,20.76-7.03,0-15.39-1.94-19.48-10.98-1.52-3.42-1.42-8.95-1.52-12.64h7.89c-.38,10.24,1.61,16.7,13.49,16.7,7.98,0,13.58-3.97,13.58-12.09,0-10.52-4.37-10.61-11.59-13.29-3.9-1.48-10.16-3.42-13.96-5.35-6.75-3.32-8.46-8.86-8.46-15.69,0-11.44,8.26-18.92,19.86-18.92,13.01,0,20.99,6.55,20.23,19.56h-7.88,0Z"/>
    <path class="cls-3" d="M711.12,1000.04l16.72-34.7h8.74l-21.57,42.36v26.85h-7.88v-26.85l-21.38-42.36h8.74l16.62,34.7h.01Z"/>
    <path class="cls-3" d="M773.65,983.52c.57-7.2-3.42-12.64-11.3-12.64-11.5,0-12.73,7.01-12.73,12.37,0,4.8,2.19,7.75,6.75,9.41,3.8,1.39,7.5,2.77,11.3,4.15,13.49,4.89,15.96,9.5,15.96,18.64,0,13.1-8.46,20.76-22.14,20.76-7.03,0-15.39-1.94-19.48-10.98-1.52-3.42-1.42-8.95-1.52-12.64h7.88c-.38,10.24,1.62,16.7,13.49,16.7,7.98,0,13.58-3.97,13.58-12.09,0-10.52-4.37-10.61-11.59-13.29-3.9-1.48-10.17-3.42-13.97-5.35-6.74-3.32-8.45-8.86-8.45-15.69,0-11.44,8.26-18.92,19.85-18.92,13.02,0,21,6.55,20.24,19.56h-7.88.01Z"/>
    <path class="cls-3" d="M788,965.34h44.75v6.92h-18.43v62.29h-7.88v-62.29h-18.43v-6.92h-.01Z"/>
    <path class="cls-3" d="M839.21,1034.55v-69.21h35.63v6.92h-27.74v22.88h26.03v6.92h-26.03v25.56h27.93v6.92h-35.82Z"/>
    <path class="cls-3" d="M930.62,965.34h13.87v69.21h-7.89v-57.03c0-2.95.19-5.81,0-8.77h-.19c-.86,4.06-1.52,6.65-2.19,9.32l-14.91,56.47h-9.41l-14.91-57.3c-.66-2.4-1.24-4.7-2.09-8.49h-.19c0,2.95.19,6,.19,8.95v56.84h-7.88v-69.21h13.96l13.96,53.98c.76,2.95,1.14,5.81,1.52,10.24h.19c.48-3.51.95-6.92,1.8-10.34l14.16-53.89v.02Z"/>
    <path class="cls-3" d="M987.82,983.52c.57-7.2-3.42-12.64-11.3-12.64-11.5,0-12.73,7.01-12.73,12.37,0,4.8,2.18,7.75,6.74,9.41,3.8,1.39,7.51,2.77,11.31,4.15,13.49,4.89,15.96,9.5,15.96,18.64,0,13.1-8.46,20.76-22.14,20.76-7.03,0-15.39-1.94-19.48-10.98-1.52-3.42-1.42-8.95-1.52-12.64h7.89c-.38,10.24,1.61,16.7,13.49,16.7,7.98,0,13.58-3.97,13.58-12.09,0-10.52-4.37-10.61-11.59-13.29-3.9-1.48-10.16-3.42-13.96-5.35-6.75-3.32-8.46-8.86-8.46-15.69,0-11.44,8.26-18.92,19.86-18.92,13.01,0,20.99,6.55,20.23,19.56h-7.88,0Z"/>
    <path class="cls-3" d="M1073.15,1035.11h-6.08v-10.8h-.19c-2.09,7.84-8.45,11.9-16.34,11.9-21.19,0-22.8-20.48-22.8-36.72s2.94-35.53,23.56-35.53c13.58,0,21.37,8.58,21.19,21.5h-7.98c-.1-8.49-3.8-14.4-12.83-14.58-15.58-.28-15.77,17.07-15.77,28.88,0,10.52-.57,28.88,13.49,29.53,14.63.64,15.96-12.37,15.87-23.35h-15.87v-6.92h23.75v36.08h0Z"/>
    <path class="cls-3" d="M1094.81,1034.55h-7.88v-69.21h18.33c14.92,0,24.42,3.78,23.94,19.75-.28,8.12-5.42,13.93-13.68,15.04v.18c9.22.83,11.5,3.69,12.64,12.92.28,5.17.76,10.24,1.52,15.41.28,1.29.86,4.34,2.76,4.34v1.57h-9.22c-1.71-4.43-2.47-13.01-2.47-17.62,0-6.92-2.85-12.83-12.16-12.83h-13.77v30.45h0ZM1094.81,997.18h12.44c3.7-.09,13.96-.65,13.78-12.74-.19-11.9-9.78-12.18-15.1-12.18h-11.12v24.91h0Z"/>
    <path class="cls-3" d="M1164.18,963.96c20.81,0,23.37,18.64,23.28,34.51-.1,19.2-2.66,37.74-23.47,37.74s-23.28-18.55-23.47-37.74c0-15.87,2.47-34.51,23.66-34.51h0ZM1163.8,970.88c-12.16,0-15.2,12.37-15.1,27.78.1,20.02,2.18,30.64,15.3,30.64s15.2-10.61,15.29-30.64c.1-15.41-2.94-27.78-15.48-27.78h-.01Z"/>
    <path class="cls-3" d="M1198.77,965.34h7.88v49.74c-.1,5.44.86,14.21,13.49,14.21s13.59-8.77,13.49-14.21v-49.74h7.88v52.5c0,12.37-8.46,18.36-21.38,18.36s-21.37-6-21.37-18.36v-52.5h.01Z"/>
    <path class="cls-3" d="M1255.4,1034.55v-69.21h18.72c5.51,0,12.44.65,16.63,4.52,4.27,3.88,5.79,9.23,5.79,14.76,0,7.66-2.38,15.14-10.07,18.55-4.94,2.03-13.02,2.03-18.43,2.03h-4.75v29.34h-7.89ZM1263.29,998.29h7.7c10.83-.09,17.48-1.57,17.38-13.47,0-11.16-7.32-12.73-16.91-12.55h-8.17v26.02h0Z"/>
    <path class="cls-3" d="M1359.92,986.11c-.19-8.21-2.94-15.23-12.82-15.23-13.68,0-13.87,18.92-13.87,28.05-.38,9.41-.57,30.36,13.87,30.36,9.4,0,11.4-7.48,12.35-15.04.19-1.57.29-3.14.48-4.7h7.88c-.19,1.38-.19,2.86-.38,4.25-.48,5.63-.76,9.87-4.18,14.67-3.7,4.98-8.64,7.75-15.48,7.75-21.95,0-22.71-20.58-22.71-37.09,0-15.59,2.37-35.16,22.61-35.16,13.49,0,20.52,9.78,20.14,22.15h-7.89Z"/>
    <path class="cls-3" d="M1400.21,963.96c20.81,0,23.37,18.64,23.28,34.51-.1,19.2-2.66,37.74-23.47,37.74s-23.28-18.55-23.47-37.74c0-15.87,2.47-34.51,23.66-34.51h0ZM1399.83,970.88c-12.16,0-15.2,12.37-15.1,27.78.1,20.02,2.18,30.64,15.3,30.64s15.2-10.61,15.29-30.64c.1-15.41-2.94-27.78-15.48-27.78h-.01Z"/>
    <path class="cls-3" d="M1479.92,965.34h13.87v69.21h-7.89v-57.03c0-2.95.19-5.81,0-8.77h-.19c-.86,4.06-1.52,6.65-2.19,9.32l-14.91,56.47h-9.41l-14.91-57.3c-.66-2.4-1.24-4.7-2.09-8.49h-.19c0,2.95.19,6,.19,8.95v56.84h-7.88v-69.21h13.96l13.96,53.98c.76,2.95,1.14,5.81,1.52,10.24h.19c.48-3.51.95-6.92,1.8-10.34l14.16-53.89v.02Z"/>
    <path class="cls-3" d="M1507.3,1034.55v-69.21h18.71c5.51,0,12.45.65,16.62,4.52,4.28,3.88,5.8,9.23,5.8,14.76,0,7.66-2.37,15.14-10.07,18.55-4.94,2.03-13.02,2.03-18.43,2.03h-4.75v29.34h-7.88ZM1515.18,998.29h7.69c10.83-.09,17.48-1.57,17.39-13.47,0-11.16-7.32-12.73-16.91-12.55h-8.17v26.02h0Z"/>
    <path class="cls-3" d="M1567.92,965.34h10.45l20.05,69.21h-8.74l-5.6-19.93h-22.52l-5.22,19.93h-8.74l20.33-69.21h-.01ZM1573.04,970.88h-.19l-9.4,36.82h18.81l-9.22-36.82h0Z"/>
    <path class="cls-3" d="M1640.32,965.34h7.89v69.21h-12.92l-19.95-55.37c-1.14-3.14-2-6.28-2.66-10.43h-.19c.09,3.51.19,7.11.19,10.61v55.18h-7.88v-69.21h12.82l20.24,56.66c.85,2.12,1.52,4.34,2.47,7.57h.19c-.1-2.49-.19-5.17-.19-7.75v-56.47h0Z"/>
    <path class="cls-3" d="M1680.04,1000.04l16.72-34.7h8.74l-21.57,42.36v26.85h-7.88v-26.85l-21.38-42.36h8.74l16.62,34.7h.01Z"/>
  </g>
</svg>