<svg width="81" height="20" viewBox="0 0 81 20" fill="none" xmlns="http://www.w3.org/2000/svg">
<line x1="1.00808" y1="10.2888" x2="27.669" y2="10.2888" stroke="#181E25" stroke-width="1.42242" stroke-linecap="round"/>
<path d="M34.2142 11.9998L33.7142 10.9998H37.2142L36.8142 9.99984H33.5475L33.0475 8.99984H38.2475L37.8475 7.99984H32.9542L32.3809 6.99984H34.8809C34.8809 6.64622 35.0213 6.30708 35.2714 6.05703C35.5214 5.80698 35.8606 5.6665 36.2142 5.6665H44.2142V8.33317H46.2142L48.2142 10.9998V14.3332H46.8809C46.8809 14.8636 46.6701 15.3723 46.2951 15.7474C45.92 16.1225 45.4113 16.3332 44.8809 16.3332C44.3504 16.3332 43.8417 16.1225 43.4666 15.7474C43.0916 15.3723 42.8809 14.8636 42.8809 14.3332H40.2142C40.2142 14.8636 40.0035 15.3723 39.6284 15.7474C39.2533 16.1225 38.7446 16.3332 38.2142 16.3332C37.6838 16.3332 37.1751 16.1225 36.8 15.7474C36.4249 15.3723 36.2142 14.8636 36.2142 14.3332H34.8809V11.9998H34.2142ZM44.8809 15.3332C45.1461 15.3332 45.4004 15.2278 45.588 15.0403C45.7755 14.8527 45.8809 14.5984 45.8809 14.3332C45.8809 14.068 45.7755 13.8136 45.588 13.6261C45.4004 13.4385 45.1461 13.3332 44.8809 13.3332C44.6156 13.3332 44.3613 13.4385 44.1738 13.6261C43.9862 13.8136 43.8809 14.068 43.8809 14.3332C43.8809 14.5984 43.9862 14.8527 44.1738 15.0403C44.3613 15.2278 44.6156 15.3332 44.8809 15.3332ZM45.8809 9.33317H44.2142V10.9998H47.1875L45.8809 9.33317ZM38.2142 15.3332C38.4794 15.3332 38.7338 15.2278 38.9213 15.0403C39.1088 14.8527 39.2142 14.5984 39.2142 14.3332C39.2142 14.068 39.1088 13.8136 38.9213 13.6261C38.7338 13.4385 38.4794 13.3332 38.2142 13.3332C37.949 13.3332 37.6946 13.4385 37.5071 13.6261C37.3195 13.8136 37.2142 14.068 37.2142 14.3332C37.2142 14.5984 37.3195 14.8527 37.5071 15.0403C37.6946 15.2278 37.949 15.3332 38.2142 15.3332Z" fill="#181E25"/>
<line x1="52.9241" y1="10.2888" x2="79.585" y2="10.2888" stroke="#181E25" stroke-width="1.42242" stroke-linecap="round"/>
</svg>
