<svg width="81" height="20" viewBox="0 0 81 20" fill="none" xmlns="http://www.w3.org/2000/svg">
<g opacity="0.4">
<line x1="1.6741" y1="10.2888" x2="28.335" y2="10.2888" stroke="#ACB8C4" stroke-width="1.42242" stroke-linecap="round"/>
<path d="M34.8802 11.9998L34.3802 10.9998H37.8802L37.4802 9.99984H34.2135L33.7135 8.99984H38.9135L38.5135 7.99984H33.6202L33.0469 6.99984H35.5469C35.5469 6.64622 35.6874 6.30708 35.9374 6.05703C36.1874 5.80698 36.5266 5.6665 36.8802 5.6665H44.8802V8.33317H46.8802L48.8802 10.9998V14.3332H47.5469C47.5469 14.8636 47.3362 15.3723 46.9611 15.7474C46.586 16.1225 46.0773 16.3332 45.5469 16.3332C45.0164 16.3332 44.5077 16.1225 44.1327 15.7474C43.7576 15.3723 43.5469 14.8636 43.5469 14.3332H40.8802C40.8802 14.8636 40.6695 15.3723 40.2944 15.7474C39.9193 16.1225 39.4106 16.3332 38.8802 16.3332C38.3498 16.3332 37.8411 16.1225 37.466 15.7474C37.0909 15.3723 36.8802 14.8636 36.8802 14.3332H35.5469V11.9998H34.8802ZM45.5469 15.3332C45.8121 15.3332 46.0664 15.2278 46.254 15.0403C46.4415 14.8527 46.5469 14.5984 46.5469 14.3332C46.5469 14.068 46.4415 13.8136 46.254 13.6261C46.0664 13.4385 45.8121 13.3332 45.5469 13.3332C45.2817 13.3332 45.0273 13.4385 44.8398 13.6261C44.6522 13.8136 44.5469 14.068 44.5469 14.3332C44.5469 14.5984 44.6522 14.8527 44.8398 15.0403C45.0273 15.2278 45.2817 15.3332 45.5469 15.3332ZM46.5469 9.33317H44.8802V10.9998H47.8535L46.5469 9.33317ZM38.8802 15.3332C39.1454 15.3332 39.3998 15.2278 39.5873 15.0403C39.7749 14.8527 39.8802 14.5984 39.8802 14.3332C39.8802 14.068 39.7749 13.8136 39.5873 13.6261C39.3998 13.4385 39.1454 13.3332 38.8802 13.3332C38.615 13.3332 38.3606 13.4385 38.1731 13.6261C37.9856 13.8136 37.8802 14.068 37.8802 14.3332C37.8802 14.5984 37.9856 14.8527 38.1731 15.0403C38.3606 15.2278 38.615 15.3332 38.8802 15.3332Z" fill="#94A2B2"/>
<line x1="53.5901" y1="10.2888" x2="80.251" y2="10.2888" stroke="#ACB8C4" stroke-width="1.42242" stroke-linecap="round"/>
</g>
</svg>
