<svg width="81" height="21" viewBox="0 0 81 21" fill="none" xmlns="http://www.w3.org/2000/svg">
<path fill-rule="evenodd" clip-rule="evenodd" d="M45.7118 6.69523V4.95549C45.7118 4.74191 45.5695 4.59953 45.3559 4.59953H43.4574V2.34436C43.4574 2.13079 43.315 1.98841 43.1014 1.98841H39.5419C39.3283 1.98841 39.1859 2.13079 39.1859 2.34436V4.59953H36.813C36.5995 4.59953 36.4571 4.74191 36.4571 4.95549V7.76308H35.1913V3.84761H34.4794V1H33.0556V3.84761H31.6318C31.6318 3.84761 30.9199 4.91547 30.9199 7.76308C30.9199 9.52918 31.6045 10.6107 32.1245 11.4322C32.443 11.9353 32.6997 12.3408 32.6997 12.7464H45.8699C45.8699 12.0651 46.2871 11.6968 46.8022 11.2421C47.6327 10.509 48.7175 9.55132 48.7175 6.69523H45.7118ZM41.4404 7.76308V5.90388H40.7285V7.76308H41.4404Z" fill="#181E25"/>
<path d="M45.7118 6.69523H45.0006V7.40644H45.7118V6.69523ZM43.4574 4.59953H42.7462V5.31074H43.4574V4.59953ZM39.1859 4.59953V5.31074H39.8972V4.59953H39.1859ZM36.4571 7.76308V8.47429H37.1683V7.76308H36.4571ZM35.1913 7.76308H34.4801V8.47429H35.1913V7.76308ZM35.1913 3.84761H35.9026V3.1364H35.1913V3.84761ZM34.4794 3.84761H33.7682V4.55882H34.4794V3.84761ZM34.4794 1H35.1906V0.28879H34.4794V1ZM33.0556 1V0.28879H32.3444V1H33.0556ZM33.0556 3.84761V4.55882H33.7668V3.84761H33.0556ZM31.6318 3.84761V3.1364H31.2512L31.0401 3.45311L31.6318 3.84761ZM32.1245 11.4322L31.5236 11.8126H31.5236L32.1245 11.4322ZM32.6997 12.7464H31.9885V13.4576H32.6997V12.7464ZM45.8699 12.7464V13.4576H46.5811V12.7464H45.8699ZM46.8022 11.2421L47.2729 11.7753V11.7753L46.8022 11.2421ZM48.7175 6.69523H49.4287V5.98402H48.7175V6.69523ZM41.4404 5.90388H42.1516V5.19267H41.4404V5.90388ZM41.4404 7.76308V8.47429H42.1516V7.76308H41.4404ZM40.7285 5.90388V5.19267H40.0173V5.90388H40.7285ZM40.7285 7.76308H40.0173V8.47429H40.7285V7.76308ZM46.423 6.69523V4.95549H45.0006V6.69523H46.423ZM46.423 4.95549C46.423 4.68708 46.3305 4.40814 46.1169 4.19452C45.9032 3.9809 45.6243 3.88832 45.3559 3.88832V5.31074C45.3011 5.31074 45.2001 5.28936 45.1111 5.20032C45.022 5.11128 45.0006 5.01032 45.0006 4.95549H46.423ZM45.3559 3.88832H43.4574V5.31074H45.3559V3.88832ZM44.1686 4.59953V2.34436H42.7462V4.59953H44.1686ZM44.1686 2.34436C44.1686 2.07595 44.076 1.79702 43.8624 1.58339C43.6488 1.36977 43.3698 1.2772 43.1014 1.2772V2.69962C43.0466 2.69962 42.9456 2.67823 42.8566 2.5892C42.7675 2.50016 42.7462 2.39919 42.7462 2.34436H44.1686ZM43.1014 1.2772H39.5419V2.69962H43.1014V1.2772ZM39.5419 1.2772C39.2735 1.2772 38.9945 1.36977 38.7809 1.58339C38.5673 1.79702 38.4747 2.07595 38.4747 2.34436H39.8972C39.8972 2.39919 39.8758 2.50016 39.7867 2.5892C39.6977 2.67823 39.5967 2.69962 39.5419 2.69962V1.2772ZM38.4747 2.34436V4.59953H39.8972V2.34436H38.4747ZM39.1859 3.88832H36.813V5.31074H39.1859V3.88832ZM36.813 3.88832C36.5446 3.88832 36.2657 3.9809 36.0521 4.19452C35.8385 4.40814 35.7459 4.68708 35.7459 4.95549H37.1683C37.1683 5.01032 37.1469 5.11128 37.0579 5.20032C36.9688 5.28936 36.8679 5.31074 36.813 5.31074V3.88832ZM35.7459 4.95549V7.76308H37.1683V4.95549H35.7459ZM36.4571 7.05187H35.1913V8.47429H36.4571V7.05187ZM35.9026 7.76308V3.84761H34.4801V7.76308H35.9026ZM35.1913 3.1364H34.4794V4.55882H35.1913V3.1364ZM35.1906 3.84761V1H33.7682V3.84761H35.1906ZM34.4794 0.28879H33.0556V1.71121H34.4794V0.28879ZM32.3444 1V3.84761H33.7668V1H32.3444ZM33.0556 3.1364H31.6318V4.55882H33.0556V3.1364ZM31.6318 3.84761C31.0401 3.45311 31.0398 3.45347 31.0396 3.45383C31.0395 3.45396 31.0393 3.45432 31.0391 3.45458C31.0387 3.45509 31.0384 3.45561 31.038 3.45615C31.0373 3.45724 31.0366 3.45839 31.0358 3.45961C31.0342 3.46204 31.0324 3.46475 31.0305 3.46773C31.0267 3.4737 31.0223 3.48076 31.0173 3.48894C31.0073 3.5053 30.9949 3.52612 30.9807 3.55156C30.9522 3.60246 30.916 3.6718 30.8748 3.76092C30.7925 3.93927 30.6909 4.1961 30.592 4.54211C30.3942 5.2345 30.2087 6.27966 30.2087 7.76308H31.6311C31.6311 6.39889 31.8016 5.48632 31.9597 4.93288C32.0388 4.65597 32.1152 4.46786 32.1663 4.357C32.1919 4.30151 32.2113 4.26518 32.2218 4.24656C32.227 4.23724 32.23 4.23234 32.2304 4.23166C32.2306 4.23132 32.2302 4.23204 32.229 4.23379C32.2285 4.23467 32.2277 4.2358 32.2268 4.23719C32.2264 4.23789 32.2259 4.23864 32.2253 4.23947C32.2251 4.23988 32.2248 4.2403 32.2245 4.24075C32.2244 4.24097 32.2241 4.24131 32.2241 4.24142C32.2238 4.24177 32.2236 4.24212 31.6318 3.84761ZM30.2087 7.76308C30.2087 9.74304 30.9908 10.9709 31.5236 11.8126L32.7255 11.0518C32.2182 10.2505 31.6311 9.31533 31.6311 7.76308H30.2087ZM31.5236 11.8126C31.6889 12.0737 31.8085 12.2644 31.8913 12.4356C31.9719 12.6023 31.9885 12.694 31.9885 12.7464H33.4109C33.4109 12.3932 33.2991 12.0794 33.1718 11.8162C33.0466 11.5574 32.8786 11.2937 32.7255 11.0518L31.5236 11.8126ZM32.6997 13.4576H45.8699V12.0352H32.6997V13.4576ZM46.5811 12.7464C46.5811 12.4302 46.7206 12.2629 47.2729 11.7753L46.3315 10.709C45.8537 11.1308 45.1587 11.7001 45.1587 12.7464H46.5811ZM47.2729 11.7753C47.6893 11.4077 48.2552 10.9135 48.6958 10.1051C49.1389 9.292 49.4287 8.21621 49.4287 6.69523H48.0063C48.0063 8.03034 47.7536 8.86143 47.4468 9.42443C47.1374 9.99217 46.7456 10.3434 46.3315 10.709L47.2729 11.7753ZM48.7175 5.98402H45.7118V7.40644H48.7175V5.98402ZM40.7292 5.90388V7.76308H42.1516V5.90388H40.7292ZM40.7285 6.61509H41.4404V5.19267H40.7285V6.61509ZM41.4397 7.76308V5.90388H40.0173V7.76308H41.4397ZM41.4404 7.05187H40.7285V8.47429H41.4404V7.05187Z" fill="#181E25"/>
<path d="M6.03906 16.7329L8.31494 18.4398C10.3379 19.9571 13.1196 19.9571 15.1425 18.4398L16.565 17.373C17.0707 16.9937 17.7661 16.9937 18.2719 17.373L19.6943 18.4398C21.7173 19.9571 24.4989 19.9571 26.5219 18.4398L27.9443 17.373C28.4501 16.9937 29.1455 16.9937 29.6512 17.373L31.0736 18.4398C33.0966 19.9571 35.8783 19.9571 37.9013 18.4398L40.1771 16.7329" stroke="#181E25" stroke-width="1.42242" stroke-linecap="round"/>
<path d="M40.1777 16.7329L44.0093 19.0318C45.993 20.222 48.4998 20.0927 50.3504 18.7047L52.1261 17.373C52.6318 16.9937 53.3272 16.9937 53.833 17.373L55.2554 18.4398C57.2784 19.9571 60.06 19.9571 62.083 18.4398L63.5054 17.373C64.0112 16.9937 64.7066 16.9937 65.2123 17.373L66.6347 18.4398C68.6577 19.9571 71.4394 19.9571 73.4624 18.4398L75.7382 16.7329" stroke="#181E25" stroke-width="1.42242" stroke-linecap="round"/>
</svg>
